<svg id="instagram" xmlns="http://www.w3.org/2000/svg" width="18.747" height="18.747" viewBox="0 0 18.747 18.747">
  <path id="Path_3" data-name="Path 3" d="M9.373,1.666a28.741,28.741,0,0,1,3.749.1,4.831,4.831,0,0,1,1.771.312,3.658,3.658,0,0,1,1.771,1.771,4.831,4.831,0,0,1,.312,1.771c0,.937.1,1.25.1,3.749a28.741,28.741,0,0,1-.1,3.749,4.831,4.831,0,0,1-.312,1.771,3.658,3.658,0,0,1-1.771,1.771,4.831,4.831,0,0,1-1.771.312c-.937,0-1.25.1-3.749.1a28.741,28.741,0,0,1-3.749-.1,4.831,4.831,0,0,1-1.771-.312,3.658,3.658,0,0,1-1.771-1.771,4.831,4.831,0,0,1-.312-1.771c0-.937-.1-1.25-.1-3.749a28.741,28.741,0,0,1,.1-3.749,4.831,4.831,0,0,1,.312-1.771,3.741,3.741,0,0,1,.729-1.041,1.761,1.761,0,0,1,1.041-.729,4.831,4.831,0,0,1,1.771-.312,28.741,28.741,0,0,1,3.749-.1M9.373,0A30.773,30.773,0,0,0,5.52.1,6.43,6.43,0,0,0,3.229.521,4.077,4.077,0,0,0,1.562,1.562,4.077,4.077,0,0,0,.521,3.229,4.745,4.745,0,0,0,.1,5.52,30.773,30.773,0,0,0,0,9.373a30.773,30.773,0,0,0,.1,3.854,6.43,6.43,0,0,0,.417,2.291,4.077,4.077,0,0,0,1.041,1.666,4.077,4.077,0,0,0,1.666,1.041,6.43,6.43,0,0,0,2.291.417,30.773,30.773,0,0,0,3.854.1,30.773,30.773,0,0,0,3.854-.1,6.43,6.43,0,0,0,2.291-.417,4.37,4.37,0,0,0,2.708-2.708,6.43,6.43,0,0,0,.417-2.291c0-1.041.1-1.354.1-3.854a30.773,30.773,0,0,0-.1-3.854,6.43,6.43,0,0,0-.417-2.291,4.077,4.077,0,0,0-1.041-1.666A4.077,4.077,0,0,0,15.518.521,6.43,6.43,0,0,0,13.227.1,30.773,30.773,0,0,0,9.373,0m0,4.583A4.714,4.714,0,0,0,4.583,9.373,4.791,4.791,0,1,0,9.373,4.583m0,7.915A3.069,3.069,0,0,1,6.249,9.373,3.069,3.069,0,0,1,9.373,6.249,3.069,3.069,0,0,1,12.5,9.373,3.069,3.069,0,0,1,9.373,12.5m5-9.269a1.146,1.146,0,1,0,1.146,1.146,1.156,1.156,0,0,0-1.146-1.146" fill="#005aff" fill-rule="evenodd"/>
</svg>
