<svg xmlns="http://www.w3.org/2000/svg" width="24.871" height="17.623" viewBox="0 0 24.871 17.623">
  <g id="youtube.svg" transform="translate(-3397.497 -5755.393)">
    <path id="Path_242" data-name="Path 242" d="M3406.191,5755.472a95.022,95.022,0,0,1,10.272.139c4.151.276,5.372.615,5.749,4.877.213,2.409.313,7.748-.424,9.865-.926,2.66-4.734,2.462-7.907,2.582a93.611,93.611,0,0,1-10.48-.143c-4.171-.319-5.463-.588-5.776-4.909-.164-2.271-.3-8.022.437-9.939C3399.068,5755.333,3403.091,5755.6,3406.191,5755.472Z" transform="translate(0 0)" fill="#005aff" fill-rule="evenodd"/>
    <path id="Path_243" data-name="Path 243" d="M4127.668,6166.6l4.935-2.776-4.9-2.891Z" transform="translate(-720.203 -399.56)" fill="#fff" fill-rule="evenodd"/>
  </g>
</svg>
