<svg xmlns="http://www.w3.org/2000/svg" width="25.962" height="15.98" viewBox="0 0 25.962 15.98">
  <path id="behance" d="M12.382,17.419a3.039,3.039,0,0,0,2.307-3.206C14.69,10.664,11.514,10,7.936,10H3.73A1.721,1.721,0,0,0,2,11.713V24.267A1.721,1.721,0,0,0,3.73,25.98h6.806a4.663,4.663,0,0,0,4.73-4.517A3.842,3.842,0,0,0,12.382,17.419ZM5.461,12.853H9.5a1.712,1.712,0,1,1,0,3.424H5.461ZM9.787,23.126H5.461V19.131H9.787a2,2,0,1,1,0,3.995ZM27.1,20.843a.861.861,0,0,0,.866-.856h0a5.717,5.717,0,0,0-5.768-5.992,5.883,5.883,0,0,0-5.768,5.992,5.883,5.883,0,0,0,5.768,5.992c2.819,0,4.385-1.3,5.15-3.22a.571.571,0,0,0-.543-.769H25.416a.6.6,0,0,0-.506.3,2.736,2.736,0,0,1-2.415,1.41,3.217,3.217,0,0,1-3.1-2.853H27.1Zm-4.9-4.566a2.91,2.91,0,0,1,2.687,2.283H19.532A2.98,2.98,0,0,1,22.194,16.278Zm2.589-3.424H20.169A.861.861,0,0,1,19.3,12h0a.861.861,0,0,1,.865-.856h4.614a.861.861,0,0,1,.865.856h0A.861.861,0,0,1,24.783,12.853Z" transform="translate(-2 -10)" fill="#005aff"/>
</svg>
