<svg xmlns="http://www.w3.org/2000/svg" width="20.129" height="21.301" viewBox="0 0 20.129 21.301">
  <path id="pinterest" d="M12.064,2C6.511,2,2,6.774,2,12.65S6.511,23.3,12.064,23.3s10.064-4.774,10.064-10.65S17.618,2,12.064,2Zm0,.926a9.461,9.461,0,0,1,9.189,9.724,9.461,9.461,0,0,1-9.189,9.724,8.739,8.739,0,0,1-2.671-.418,10.671,10.671,0,0,0,1.056-2.4c.115-.466.586-2.367.586-2.367a2.478,2.478,0,0,0,2.155,1.143c2.837,0,4.883-2.761,4.883-6.192a5.668,5.668,0,0,0-5.8-5.75,5.855,5.855,0,0,0-6.216,6.024c0,1.46.734,3.278,1.909,3.857.178.088.274.05.315-.133.031-.139.19-.814.262-1.129a.312.312,0,0,0-.065-.286,4.023,4.023,0,0,1-.7-2.272,4.192,4.192,0,0,1,4.248-4.321,3.821,3.821,0,0,1,3.93,4.051c0,2.693-1.285,4.559-2.957,4.559a1.425,1.425,0,0,1-1.393-1.8,20.927,20.927,0,0,0,.779-3.315c0-.764-.388-1.4-1.191-1.4-.944,0-1.7,1.033-1.7,2.417a3.763,3.763,0,0,0,.282,1.478s-.933,4.172-1.1,4.949a9.364,9.364,0,0,0-.055,2.6A9.73,9.73,0,0,1,2.875,12.65,9.461,9.461,0,0,1,12.064,2.926Z" transform="translate(-2 -2)" fill="#005aff"/>
</svg>
