<svg id="twitter" xmlns="http://www.w3.org/2000/svg" width="19.182" height="19.919" viewBox="0 0 19.182 19.919">
  <rect id="Rectangle_393" data-name="Rectangle 393" width="18.747" height="19.919" transform="translate(0.435 0)" fill="none"/>
  <path id="Path_2" data-name="Path 2" d="M43.937,17.206A10.838,10.838,0,0,0,54.872,6.27V5.749a8.466,8.466,0,0,0,1.875-1.979A8.646,8.646,0,0,1,54.56,4.4a4.052,4.052,0,0,0,1.666-2.083,9.553,9.553,0,0,1-2.4.937A3.72,3.72,0,0,0,51.019,2a3.913,3.913,0,0,0-3.854,3.854,2.03,2.03,0,0,0,.1.833,10.768,10.768,0,0,1-7.915-4.062A3.989,3.989,0,0,0,38.833,4.6,4.138,4.138,0,0,0,40.5,7.832a3.511,3.511,0,0,1-1.771-.521h0a3.806,3.806,0,0,0,3.124,3.749,3.211,3.211,0,0,1-1.041.1,1.772,1.772,0,0,1-.729-.1,3.946,3.946,0,0,0,3.645,2.708,7.863,7.863,0,0,1-4.791,1.666,2.883,2.883,0,0,1-.937-.1,9.83,9.83,0,0,0,5.937,1.875" transform="translate(-38 0.343)" fill="#005aff" fill-rule="evenodd"/>
</svg>
